<?xml version="1.0" encoding="utf-8"?>
<svg width="40" height="48" viewBox="0 0 40 48" fill="none" xmlns="http://www.w3.org/2000/svg">
  <g>
    <g>
      <path d="M0 12C0 5.37258 5.37258 0 12 0C18.6274 0 24 5.37258 24 12C24 18.6274 18.6274 24 12 24C5.37258 24 0 18.6274 0 12Z" fill="#3D5AFE" fill-rule="evenodd" fill-opacity="0.9" transform="translate(4 12)" />
      <path d="M0 12C0 5.37258 5.37258 0 12 0C18.6274 0 24 5.37258 24 12C24 18.6274 18.6274 24 12 24C5.37258 24 0 18.6274 0 12Z" fill="#FF9800" fill-rule="evenodd" fill-opacity="0.8" transform="translate(12 12)" />
      <path d="M0 12C0 5.37258 5.37258 0 12 0C18.6274 0 24 5.37258 24 12C24 18.6274 18.6274 24 12 24C5.37258 24 0 18.6274 0 12Z" fill="#69F0AE" fill-rule="evenodd" fill-opacity="0.85" transform="translate(8 2)" />
    </g>
    <g fill="#000000" transform="translate(7 37)">
      <path d="M5.08887 2.1731L5.87988 2.1731L5.87988 6.5061Q5.87988 7.17847 5.56567 7.70361Q5.25146 8.22876 4.67798 8.53198Q4.10669 8.83301 3.33765 8.83301Q2.56641 8.83301 1.99292 8.53198Q1.42163 8.22876 1.10742 7.70361Q0.793213 7.17847 0.793213 6.5061L0.793213 2.1731L1.58423 2.1731L1.58423 6.44238Q1.58423 7.16309 2.05005 7.62891Q2.51807 8.09253 3.33765 8.09253Q4.15723 8.09253 4.62305 7.62891Q5.08887 7.16309 5.08887 6.44238L5.08887 2.1731ZM8.1169 5.76562L8.1169 8.71875L7.36324 8.71875L7.36324 3.81006L8.09273 3.81006L8.09273 4.5769L8.15645 4.5769Q8.32784 4.20337 8.6794 3.97485Q9.03096 3.74634 9.58907 3.74634Q10.3317 3.74634 10.791 4.20337Q11.2502 4.6604 11.2502 5.59863L11.2502 8.71875L10.4965 8.71875L10.4965 5.65137Q10.4965 5.07129 10.1955 4.74829Q9.89449 4.4231 9.37154 4.4231Q8.83101 4.4231 8.47286 4.77466Q8.1169 5.12402 8.1169 5.76562ZM12.6303 8.71875L12.6303 3.81006L13.3839 3.81006L13.3839 8.71875L12.6303 8.71875ZM13.0148 2.99048Q12.7929 2.99048 12.6347 2.84106Q12.4765 2.69165 12.4765 2.48071Q12.4765 2.26978 12.6347 2.12036Q12.7929 1.96875 13.0148 1.96875Q13.2345 1.96875 13.3927 2.12036Q13.5509 2.26978 13.5509 2.48071Q13.5509 2.69165 13.3927 2.84106Q13.2345 2.99048 13.0148 2.99048Z" />
      <path d="M0.645996 8.71875L0.645996 2.1731L1.83032 2.1731L1.83032 7.72559L4.71313 7.72559L4.71313 8.71875L0.645996 8.71875ZM5.68992 8.71875L5.68992 3.81006L6.84568 3.81006L6.84568 8.71875L5.68992 8.71875ZM6.27 3.11353Q5.99314 3.11353 5.79539 2.92896Q5.59983 2.74438 5.59983 2.4873Q5.59983 2.22363 5.79539 2.04126Q5.99314 1.85669 6.27 1.85669Q6.54466 1.85669 6.74021 2.04126Q6.93797 2.22363 6.93797 2.4873Q6.93797 2.74438 6.74021 2.92896Q6.54466 3.11353 6.27 3.11353ZM8.08634 8.71875L8.08634 2.1731L9.2421 2.1731L9.2421 4.62085L9.29044 4.62085Q9.38053 4.44287 9.54093 4.24072Q9.70352 4.03638 9.98258 3.89136Q10.2616 3.74634 10.6945 3.74634Q11.2636 3.74634 11.7206 4.03638Q12.1798 4.32642 12.4501 4.88892Q12.7204 5.45142 12.7204 6.271Q12.7204 7.07959 12.4545 7.64648Q12.1886 8.21118 11.7316 8.50781Q11.2746 8.80444 10.6967 8.80444Q10.2748 8.80444 9.99576 8.66382Q9.71891 8.52319 9.54972 8.32324Q9.38272 8.12329 9.29044 7.94531L9.22452 7.94531L9.22452 8.71875L8.08634 8.71875ZM9.22013 6.2644Q9.22013 6.97632 9.52115 7.41577Q9.82218 7.85522 10.3737 7.85522Q10.9472 7.85522 11.2438 7.40479Q11.5404 6.95435 11.5404 6.2644Q11.5404 5.57666 11.246 5.13721Q10.9538 4.69556 10.3737 4.69556Q9.81559 4.69556 9.51676 5.12183Q9.22013 5.5481 9.22013 6.2644Z" transform="translate(14.075 0)" />
    </g>
  </g>
</svg>