<?xml version="1.0" encoding="utf-8"?>
<svg width="226" height="226" viewBox="0 0 226 226" fill="none" xmlns="http://www.w3.org/2000/svg">
  <path d="M132.298 16.2276L145.863 27.6349Q147.302 28.8445 148.88 29.865Q150.458 30.8855 152.152 31.701Q153.845 32.5164 155.627 33.114Q157.409 33.7116 159.251 34.0821L176.628 37.5757Q177.27 37.7049 177.906 37.862Q178.542 38.0191 179.171 38.2038Q179.8 38.3886 180.42 38.6006Q181.04 38.8126 181.65 39.0515Q182.26 39.2904 182.859 39.5558Q183.458 39.8211 184.045 40.1124Q184.632 40.4036 185.206 40.7202Q185.78 41.0368 186.339 41.3782Q186.898 41.7196 187.442 42.0851Q187.986 42.4506 188.513 42.8395Q189.041 43.2283 189.55 43.6399Q190.06 44.0515 190.552 44.4849Q191.043 44.9183 191.515 45.3728Q191.987 45.8273 192.439 46.302Q192.891 46.7767 193.321 47.2707Q193.752 47.7646 194.16 48.2769Q194.569 48.7892 194.955 49.3189Q195.34 49.8485 195.703 50.3945Q196.065 50.9405 196.403 51.5018Q196.741 52.0631 197.054 52.6387Q197.367 53.2142 197.655 53.8029Q197.943 54.3916 198.205 54.9923Q198.467 55.5929 198.702 56.2045Q198.937 56.816 199.146 57.4373Q199.354 58.0585 199.535 58.6883Q199.716 59.318 199.869 59.9551Q200.023 60.5921 200.148 61.2353Q200.273 61.8784 200.37 62.5265Q200.468 63.1745 200.536 63.8261Q200.605 64.4777 200.645 65.1318Q200.686 65.7858 200.697 66.4409Q200.709 67.0961 200.692 67.7511L200.231 85.4694Q200.182 87.3482 200.368 89.2183Q200.555 91.0885 200.973 92.9208Q201.391 94.7531 202.035 96.5188Q202.678 98.2845 203.538 99.9561L211.64 115.72Q211.94 116.303 212.214 116.898Q212.487 117.493 212.735 118.1Q212.983 118.707 213.203 119.324Q213.424 119.94 213.618 120.566Q213.811 121.192 213.977 121.826Q214.144 122.46 214.282 123.101Q214.42 123.741 214.53 124.387Q214.64 125.033 214.722 125.683Q214.804 126.333 214.857 126.986Q214.911 127.639 214.935 128.294Q214.96 128.949 214.956 129.604Q214.952 130.259 214.92 130.914Q214.887 131.568 214.826 132.221Q214.765 132.873 214.676 133.522Q214.586 134.171 214.469 134.816Q214.351 135.461 214.205 136.099Q214.059 136.738 213.886 137.37Q213.712 138.002 213.511 138.626Q213.31 139.249 213.082 139.864Q212.854 140.478 212.599 141.082Q212.345 141.685 212.064 142.277Q211.783 142.869 211.477 143.449Q211.17 144.028 210.839 144.593Q210.507 145.158 210.152 145.708Q209.796 146.259 209.416 146.793Q209.037 147.327 208.634 147.844Q208.232 148.361 207.807 148.86Q207.382 149.359 206.936 149.839Q206.49 150.319 206.024 150.779Q205.557 151.239 205.071 151.678Q204.585 152.118 204.08 152.535Q203.575 152.953 203.052 153.348L188.912 164.035Q187.413 165.168 186.067 166.48Q184.72 167.791 183.549 169.261Q182.377 170.73 181.398 172.334Q180.419 173.938 179.647 175.652L172.375 191.816Q172.106 192.413 171.811 192.999Q171.516 193.584 171.196 194.156Q170.876 194.728 170.532 195.285Q170.187 195.842 169.818 196.384Q169.45 196.925 169.058 197.451Q168.666 197.976 168.251 198.483Q167.837 198.99 167.4 199.479Q166.964 199.968 166.507 200.437Q166.049 200.907 165.572 201.356Q165.095 201.805 164.598 202.232Q164.102 202.66 163.587 203.065Q163.072 203.471 162.54 203.853Q162.008 204.236 161.46 204.595Q160.912 204.954 160.349 205.289Q159.786 205.624 159.208 205.934Q158.631 206.243 158.041 206.528Q157.45 206.812 156.848 207.07Q156.246 207.328 155.633 207.56Q155.02 207.792 154.397 207.996Q153.775 208.201 153.144 208.378Q152.513 208.556 151.875 208.705Q151.237 208.855 150.594 208.977Q149.95 209.098 149.301 209.191Q148.653 209.285 148.001 209.35Q147.348 209.414 146.694 209.451Q146.04 209.487 145.385 209.495Q144.73 209.503 144.075 209.482Q143.42 209.461 142.766 209.411Q142.113 209.362 141.462 209.284Q140.812 209.206 140.165 209.1Q139.519 208.993 138.877 208.859Q138.236 208.724 137.601 208.562L120.43 204.17Q118.609 203.704 116.744 203.47Q114.879 203.235 113 203.235Q111.121 203.235 109.256 203.47Q107.391 203.704 105.57 204.17L88.3988 208.562Q87.764 208.724 87.1227 208.859Q86.4814 208.993 85.8348 209.1Q85.1882 209.206 84.5376 209.284Q83.887 209.362 83.2337 209.411Q82.5803 209.461 81.9254 209.482Q81.2704 209.503 80.6152 209.495Q79.96 209.487 79.3058 209.451Q78.6516 209.414 77.9995 209.35Q77.3475 209.285 76.6989 209.191Q76.0503 209.098 75.4065 208.976Q74.7626 208.855 74.1246 208.705Q73.4867 208.556 72.8559 208.378Q72.2251 208.201 71.6026 207.996Q70.9801 207.792 70.3672 207.56Q69.7543 207.328 69.1521 207.07Q68.5499 206.812 67.9595 206.528Q67.3691 206.243 66.7918 205.933Q66.2144 205.624 65.6511 205.289Q65.0878 204.954 64.5397 204.595Q63.9915 204.236 63.4596 203.853Q62.9277 203.471 62.413 203.065Q61.8983 202.66 61.4018 202.232Q60.9053 201.805 60.428 201.356Q59.9506 200.907 59.4934 200.437Q59.0361 199.968 58.5998 199.479Q58.1634 198.99 57.7489 198.483Q57.3343 197.976 56.9423 197.451Q56.5503 196.925 56.1816 196.384Q55.8129 195.842 55.4683 195.285Q55.1236 194.728 54.8036 194.156Q54.4836 193.584 54.1889 192.999Q53.8942 192.413 53.6253 191.816L46.3525 175.652Q45.5814 173.938 44.6023 172.334Q43.6231 170.73 42.4513 169.261Q41.2795 167.791 39.9334 166.48Q38.5873 165.168 37.088 164.035L22.9481 153.348Q22.4254 152.953 21.9204 152.535Q21.4154 152.118 20.9291 151.679Q20.4429 151.239 19.9763 150.779Q19.5097 150.319 19.0636 149.839Q18.6175 149.359 18.1929 148.86Q17.7682 148.361 17.3657 147.844Q16.9633 147.327 16.5838 146.793Q16.2043 146.259 15.8485 145.709Q15.4927 145.158 15.1613 144.593Q14.8298 144.028 14.5234 143.449Q14.217 142.869 13.9362 142.277Q13.6554 141.685 13.4007 141.082Q13.146 140.478 12.918 139.864Q12.6899 139.249 12.4889 138.626Q12.2879 138.002 12.1143 137.37Q11.9407 136.738 11.7949 136.099Q11.6491 135.461 11.5313 134.816Q11.4136 134.171 11.3241 133.522Q11.2346 132.873 11.1735 132.221Q11.1125 131.568 11.08 130.914Q11.0475 130.26 11.0437 129.604Q11.0398 128.949 11.0645 128.294Q11.0893 127.639 11.1426 126.986Q11.196 126.333 11.2778 125.683Q11.3596 125.033 11.4698 124.387Q11.5799 123.741 11.7182 123.101Q11.8564 122.46 12.0225 121.826Q12.1886 121.193 12.3823 120.567Q12.5759 119.941 12.7967 119.324Q13.0175 118.707 13.265 118.1Q13.5126 117.493 13.7864 116.898Q14.0602 116.303 14.3597 115.72L22.4625 99.956Q23.3216 98.2845 23.9653 96.5188Q24.6091 94.7531 25.0273 92.9208Q25.4455 91.0885 25.6316 89.2183Q25.8178 87.3482 25.7689 85.4694L25.3083 67.7511Q25.2913 67.096 25.3029 66.4409Q25.3145 65.7857 25.3547 65.1317Q25.3949 64.4777 25.4636 63.8261Q25.5324 63.1744 25.6295 62.5264Q25.7267 61.8784 25.852 61.2353Q25.9774 60.5921 26.1308 59.9551Q26.2841 59.318 26.4651 58.6883Q26.6461 58.0585 26.8545 57.4373Q27.0629 56.816 27.2982 56.2045Q27.5335 55.5929 27.7953 54.9922Q28.057 54.3916 28.3448 53.8029Q28.6326 53.2142 28.9458 52.6387Q29.2591 52.0631 29.5971 51.5018Q29.9352 50.9405 30.2975 50.3945Q30.6597 49.8485 31.0455 49.3189Q31.4313 48.7892 31.8398 48.2769Q32.2484 47.7646 32.6789 47.2707Q33.1094 46.7767 33.5611 46.302Q34.0128 45.8273 34.4848 45.3728Q34.9568 44.9183 35.4483 44.4849Q35.9397 44.0515 36.4495 43.6399Q36.9594 43.2283 37.4868 42.8395Q38.0142 42.4506 38.558 42.0851Q39.1019 41.7196 39.6612 41.3782Q40.2205 41.0368 40.7941 40.7202Q41.3678 40.4036 41.9548 40.1124Q42.5418 39.8211 43.1409 39.5558Q43.74 39.2904 44.3502 39.0515Q44.9603 38.8126 45.5803 38.6006Q46.2003 38.3886 46.829 38.2038Q47.4576 38.0191 48.0938 37.862Q48.7299 37.7049 49.3723 37.5757L66.7489 34.0821Q68.5914 33.7116 70.3733 33.114Q72.1552 32.5164 73.8484 31.701Q75.5417 30.8855 77.1199 29.865Q78.6981 28.8445 80.1365 27.6349L93.7021 16.2276Q94.2037 15.8059 94.7231 15.4065Q95.2426 15.0071 95.779 14.6307Q96.3154 14.2544 96.8677 13.9019Q97.42 13.5493 97.9872 13.2212Q98.5544 12.8932 99.1354 12.5902Q99.7164 12.2872 100.31 12.0099Q100.904 11.7326 101.509 11.4815Q102.114 11.2303 102.73 11.0059Q103.345 10.7815 103.97 10.5841Q104.595 10.3868 105.228 10.217Q105.861 10.0471 106.501 9.9051Q107.14 9.76307 107.785 9.64911Q108.431 9.53516 109.08 9.4495Q109.73 9.36385 110.383 9.30665Q111.035 9.24946 111.69 9.22083Q112.345 9.19221 113 9.19221Q113.655 9.19221 114.31 9.22083Q114.964 9.24946 115.617 9.30665Q116.27 9.36385 116.92 9.4495Q117.569 9.53516 118.215 9.64911Q118.86 9.76307 119.499 9.9051Q120.139 10.0471 120.772 10.217Q121.405 10.3868 122.03 10.5841Q122.655 10.7815 123.27 11.0059Q123.886 11.2303 124.491 11.4815Q125.096 11.7326 125.69 12.0099Q126.284 12.2872 126.865 12.5902Q127.446 12.8932 128.013 13.2212Q128.58 13.5493 129.132 13.9019Q129.685 14.2544 130.221 14.6307Q130.757 15.0071 131.277 15.4065Q131.796 15.8059 132.298 16.2276Z" fill="#FF9900" fill-rule="evenodd" />
</svg>