<?xml version="1.0" encoding="utf-8"?>
<svg width="226" height="226" viewBox="0 0 226 226" fill="none" xmlns="http://www.w3.org/2000/svg">
  <path d="M128.193 14.487L136.559 22.4641Q136.97 22.856 137.4 23.2261Q137.831 23.5962 138.28 23.9437Q138.729 24.2911 139.195 24.6149Q139.662 24.9388 140.144 25.2381Q140.627 25.5375 141.124 25.8116Q141.621 26.0857 142.132 26.3338Q142.643 26.5819 143.165 26.8033Q143.688 27.0248 144.222 27.2189Q144.755 27.4131 145.298 27.5796Q145.841 27.746 146.392 27.8842Q146.942 28.0225 147.5 28.1321Q148.057 28.2418 148.619 28.3226Q149.181 28.4034 149.746 28.4551Q150.312 28.5068 150.879 28.5293Q151.446 28.5519 152.014 28.5451Q152.582 28.5383 153.148 28.5023L164.685 27.7689Q165.208 27.7356 165.732 27.7273Q166.256 27.719 166.779 27.7356Q167.303 27.7522 167.826 27.7937Q168.348 27.8353 168.868 27.9016Q169.388 27.9679 169.904 28.0589Q170.42 28.1499 170.931 28.2654Q171.442 28.3809 171.948 28.5205Q172.453 28.6601 172.951 28.8237Q173.449 28.9872 173.938 29.1742Q174.428 29.3613 174.908 29.5714Q175.388 29.7815 175.858 30.0142Q176.327 30.247 176.785 30.5018Q177.243 30.7566 177.688 31.0329Q178.134 31.3092 178.565 31.6064Q178.997 31.9036 179.414 32.221Q179.831 32.5383 180.233 32.8752Q180.634 33.2121 181.019 33.5677Q181.404 33.9233 181.772 34.2968Q182.139 34.6703 182.489 35.0609Q182.838 35.4515 183.169 35.8582Q183.499 36.265 183.81 36.687Q184.121 37.1091 184.411 37.5454Q184.701 37.9818 184.97 38.4314Q185.24 38.8811 185.487 39.343Q185.735 39.805 185.96 40.2782Q186.185 40.7514 186.388 41.2348Q186.59 41.7182 186.769 42.2107Q186.949 42.7032 187.104 43.2036Q187.26 43.7041 187.391 44.2114Q187.523 44.7187 187.63 45.2316Q187.738 45.7446 187.82 46.2621Q187.903 46.7796 187.961 47.3005L189.242 58.7887Q189.305 59.353 189.397 59.9133Q189.489 60.4736 189.61 61.0284Q189.73 61.5833 189.88 62.1311Q190.029 62.679 190.206 63.2184Q190.383 63.7579 190.588 64.2875Q190.792 64.8171 191.024 65.3354Q191.256 65.8537 191.514 66.3594Q191.772 66.8651 192.056 67.3569Q192.34 67.8486 192.649 68.325Q192.958 68.8015 193.291 69.2613Q193.624 69.7212 193.98 70.1633Q194.336 70.6054 194.715 71.0286Q195.094 71.4517 195.493 71.8548Q195.893 72.2579 196.314 72.6398Q196.734 73.0217 197.173 73.3815Q197.612 73.7412 198.069 74.0779L207.378 80.9313Q207.8 81.2421 208.207 81.5725Q208.614 81.903 209.004 82.2524Q209.395 82.6018 209.768 82.9695Q210.142 83.3371 210.498 83.7221Q210.853 84.1071 211.19 84.5085Q211.527 84.91 211.844 85.327Q212.162 85.7441 212.459 86.1758Q212.756 86.6074 213.032 87.0527Q213.309 87.4981 213.564 87.956Q213.818 88.414 214.051 88.8836Q214.284 89.3531 214.494 89.8333Q214.704 90.3134 214.891 90.803Q215.078 91.2925 215.242 91.7905Q215.405 92.2884 215.545 92.7935Q215.684 93.2986 215.8 93.8099Q215.915 94.3211 216.006 94.8372Q216.097 95.3533 216.164 95.8732Q216.23 96.393 216.272 96.9155Q216.313 97.4379 216.33 97.9617Q216.346 98.4856 216.338 99.0096Q216.33 99.5336 216.297 100.057Q216.263 100.58 216.205 101.101Q216.147 101.621 216.064 102.139Q215.982 102.656 215.874 103.169Q215.767 103.682 215.635 104.19Q215.504 104.697 215.348 105.197Q215.192 105.698 215.013 106.19Q214.834 106.683 214.631 107.166Q214.429 107.65 214.204 108.123Q213.978 108.596 213.731 109.058Q213.483 109.52 213.214 109.969Q212.945 110.419 212.655 110.855L206.251 120.479Q205.937 120.952 205.647 121.44Q205.357 121.929 205.093 122.431Q204.829 122.934 204.591 123.449Q204.353 123.965 204.142 124.492Q203.931 125.019 203.747 125.556Q203.564 126.094 203.408 126.64Q203.253 127.186 203.125 127.739Q202.998 128.293 202.899 128.852Q202.801 129.411 202.731 129.974Q202.662 130.538 202.621 131.104Q202.581 131.671 202.569 132.238Q202.558 132.806 202.576 133.373Q202.594 133.941 202.641 134.507Q202.689 135.073 202.765 135.635Q202.841 136.198 202.947 136.756Q203.052 137.314 203.186 137.866L205.911 149.099Q206.035 149.608 206.134 150.123Q206.233 150.638 206.308 151.156Q206.382 151.675 206.432 152.197Q206.482 152.719 206.507 153.242Q206.532 153.766 206.532 154.29Q206.532 154.814 206.507 155.337Q206.482 155.861 206.432 156.382Q206.382 156.904 206.308 157.423Q206.233 157.942 206.134 158.456Q206.035 158.971 205.911 159.48Q205.788 159.989 205.64 160.492Q205.492 160.995 205.321 161.49Q205.15 161.986 204.955 162.472Q204.76 162.959 204.542 163.436Q204.325 163.912 204.085 164.378Q203.844 164.844 203.582 165.298Q203.32 165.752 203.037 166.193Q202.754 166.633 202.45 167.06Q202.146 167.487 201.822 167.899Q201.498 168.311 201.154 168.707Q200.811 169.103 200.45 169.483Q200.088 169.862 199.709 170.224Q199.329 170.585 198.933 170.928Q198.537 171.272 198.125 171.596Q197.713 171.919 197.286 172.223Q196.859 172.527 196.419 172.811Q195.978 173.094 195.524 173.356Q195.07 173.618 194.604 173.858Q194.138 174.099 193.662 174.316Q193.185 174.534 192.698 174.729Q192.212 174.923 191.716 175.095Q191.221 175.266 190.718 175.414L179.627 178.67Q179.082 178.83 178.546 179.018Q178.011 179.206 177.485 179.421Q176.96 179.636 176.446 179.878Q175.932 180.12 175.432 180.388Q174.931 180.657 174.445 180.95Q173.959 181.244 173.489 181.562Q173.019 181.88 172.566 182.222Q172.113 182.564 171.678 182.929Q171.243 183.294 170.827 183.681Q170.412 184.068 170.017 184.476Q169.621 184.884 169.248 185.311Q168.874 185.739 168.523 186.185Q168.172 186.632 167.845 187.096Q167.517 187.559 167.214 188.039Q166.911 188.52 166.633 189.015Q166.355 189.51 166.103 190.018L160.97 200.376Q160.737 200.845 160.483 201.303Q160.228 201.761 159.951 202.206Q159.675 202.652 159.378 203.084Q159.081 203.515 158.763 203.932Q158.446 204.349 158.109 204.751Q157.772 205.152 157.417 205.537Q157.061 205.922 156.688 206.29Q156.314 206.658 155.923 207.007Q155.533 207.356 155.126 207.687Q154.719 208.017 154.297 208.328Q153.875 208.639 153.439 208.929Q153.003 209.219 152.553 209.489Q152.103 209.758 151.641 210.005Q151.179 210.253 150.706 210.478Q150.233 210.703 149.75 210.906Q149.266 211.108 148.774 211.288Q148.281 211.467 147.781 211.622Q147.28 211.778 146.773 211.91Q146.266 212.041 145.753 212.149Q145.24 212.256 144.722 212.339Q144.205 212.422 143.684 212.48Q143.163 212.538 142.64 212.571Q142.117 212.604 141.593 212.613Q141.069 212.621 140.545 212.604Q140.021 212.588 139.499 212.546Q138.977 212.505 138.457 212.438Q137.937 212.372 137.421 212.281Q136.905 212.19 136.393 212.074Q135.882 211.959 135.377 211.819Q134.872 211.68 134.374 211.516Q133.876 211.352 133.386 211.165Q132.897 210.978 132.417 210.768L121.827 206.133Q121.307 205.906 120.776 205.705Q120.245 205.505 119.704 205.332Q119.163 205.159 118.614 205.014Q118.065 204.869 117.509 204.753Q116.953 204.637 116.392 204.549Q115.831 204.462 115.267 204.403Q114.702 204.345 114.135 204.316Q113.568 204.286 113 204.286Q112.432 204.286 111.865 204.316Q111.298 204.345 110.733 204.403Q110.169 204.462 109.608 204.549Q109.047 204.637 108.491 204.753Q107.935 204.869 107.386 205.014Q106.837 205.159 106.296 205.332Q105.755 205.505 105.224 205.705Q104.693 205.906 104.173 206.133L93.5832 210.768Q93.1031 210.978 92.6135 211.165Q92.1239 211.352 91.626 211.516Q91.1281 211.68 90.623 211.819Q90.1178 211.959 89.6066 212.074Q89.0954 212.19 88.5793 212.281Q88.0632 212.372 87.5433 212.438Q87.0235 212.505 86.501 212.546Q85.9786 212.588 85.4548 212.604Q84.9309 212.621 84.4069 212.613Q83.8829 212.604 83.3599 212.571Q82.8368 212.538 82.316 212.48Q81.7951 212.422 81.2776 212.339Q80.7601 212.256 80.2471 212.149Q79.7342 212.041 79.2269 211.91Q78.7196 211.778 78.2191 211.622Q77.7187 211.467 77.2262 211.288Q76.7337 211.108 76.2503 210.906Q75.7669 210.703 75.2937 210.478Q74.8205 210.253 74.3586 210.005Q73.8966 209.758 73.447 209.489Q72.9973 209.219 72.561 208.929Q72.1246 208.639 71.7026 208.328Q71.2806 208.017 70.8738 207.687Q70.467 207.356 70.0765 207.007Q69.6859 206.658 69.3124 206.29Q68.9389 205.922 68.5833 205.537Q68.2277 205.152 67.8908 204.751Q67.554 204.349 67.2366 203.932Q66.9192 203.515 66.622 203.083Q66.3248 202.652 66.0485 202.206Q65.7722 201.761 65.5174 201.303Q65.2626 200.845 65.0299 200.376L59.897 190.018Q59.6449 189.51 59.3669 189.015Q59.0889 188.519 58.7857 188.039Q58.4825 187.559 58.155 187.095Q57.8275 186.632 57.4766 186.185Q57.1256 185.739 56.752 185.311Q56.3785 184.884 55.9835 184.476Q55.5884 184.068 55.1728 183.681Q54.7573 183.294 54.3223 182.929Q53.8874 182.564 53.4342 182.222Q52.981 181.88 52.5108 181.562Q52.0405 181.244 51.5546 180.95Q51.0686 180.657 50.5681 180.388Q50.0676 180.12 49.5539 179.878Q49.0403 179.636 48.5149 179.421Q47.9894 179.206 47.4536 179.018Q46.9178 178.83 46.373 178.67L35.2817 175.414Q34.7789 175.266 34.2836 175.095Q33.7883 174.923 33.3018 174.729Q32.8153 174.534 32.3385 174.316Q31.8618 174.098 31.396 173.858Q30.9301 173.618 30.4763 173.356Q30.0224 173.094 29.5815 172.811Q29.1406 172.527 28.7137 172.223Q28.2868 171.919 27.8748 171.596Q27.4629 171.272 27.0668 170.928Q26.6707 170.585 26.2914 170.223Q25.9121 169.862 25.5504 169.483Q25.1888 169.103 24.8456 168.707Q24.5023 168.311 24.1784 167.899Q23.8544 167.487 23.5504 167.06Q23.2464 166.633 22.9631 166.192Q22.6797 165.752 22.4177 165.298Q22.1556 164.844 21.9155 164.378Q21.6753 163.912 21.4576 163.435Q21.2399 162.959 21.0451 162.472Q20.8503 161.986 20.6789 161.49Q20.5075 160.995 20.3599 160.492Q20.2122 159.989 20.0887 159.48Q19.9651 158.971 19.8659 158.456Q19.7668 157.942 19.6922 157.423Q19.6176 156.904 19.5678 156.382Q19.518 155.861 19.493 155.337Q19.4681 154.814 19.4681 154.29Q19.4681 153.765 19.4931 153.242Q19.518 152.719 19.5678 152.197Q19.6177 151.675 19.6923 151.156Q19.7668 150.638 19.866 150.123Q19.9652 149.608 20.0888 149.099L22.8143 137.866Q22.9482 137.314 23.0535 136.756Q23.1587 136.198 23.2351 135.635Q23.3114 135.073 23.3587 134.507Q23.4059 133.941 23.4239 133.373Q23.442 132.806 23.4307 132.238Q23.4195 131.671 23.379 131.104Q23.3385 130.538 23.2688 129.974Q23.1992 129.411 23.1006 128.852Q23.002 128.293 22.8747 127.739Q22.7474 127.186 22.5918 126.64Q22.4361 126.094 22.2525 125.556Q22.0689 125.019 21.8579 124.492Q21.6469 123.965 21.4089 123.449Q21.171 122.934 20.9068 122.431Q20.6427 121.929 20.3529 121.44Q20.0632 120.952 19.7487 120.479L13.3455 110.855Q13.0551 110.419 12.7859 109.969Q12.5167 109.52 12.2692 109.058Q12.0217 108.596 11.7964 108.123Q11.5712 107.649 11.3687 107.166Q11.1662 106.683 10.9869 106.19Q10.8077 105.698 10.6521 105.197Q10.4964 104.697 10.3648 104.19Q10.2332 103.682 10.1258 103.169Q10.0185 102.656 9.93568 102.139Q9.85287 101.621 9.79478 101.1Q9.73668 100.58 9.70344 100.057Q9.6702 99.5336 9.66188 99.0095Q9.65356 98.4855 9.67019 97.9617Q9.68681 97.4379 9.72834 96.9154Q9.76988 96.393 9.83622 95.8731Q9.90257 95.3533 9.99357 94.8372Q10.0846 94.321 10.2 93.8098Q10.3155 93.2986 10.4552 92.7935Q10.5948 92.2883 10.7583 91.7904Q10.9219 91.2925 11.1089 90.8029Q11.296 90.3134 11.5061 89.8332Q11.7162 89.3531 11.9489 88.8836Q12.1817 88.414 12.4365 87.956Q12.6913 87.498 12.9676 87.0527Q13.2439 86.6074 13.5411 86.1757Q13.8383 85.744 14.1557 85.327Q14.4731 84.91 14.81 84.5085Q15.1469 84.107 15.5025 83.722Q15.8581 83.3371 16.2316 82.9694Q16.6051 82.6018 16.9957 82.2524Q17.3863 81.9029 17.7931 81.5725Q18.1998 81.242 18.6219 80.9313L27.9305 74.0779Q28.3877 73.7412 28.827 73.3815Q29.2663 73.0217 29.6864 72.6398Q30.1066 72.2578 30.5065 71.8548Q30.9064 71.4517 31.285 71.0286Q31.6636 70.6054 32.0198 70.1633Q32.3761 69.7212 32.7091 69.2613Q33.0421 68.8014 33.351 68.325Q33.6599 67.8486 33.9438 67.3568Q34.2277 66.8651 34.4858 66.3594Q34.744 65.8537 34.9758 65.3354Q35.2075 64.817 35.4123 64.2874Q35.617 63.7579 35.7942 63.2184Q35.9713 62.679 36.1204 62.1311Q36.2696 61.5832 36.3902 61.0284Q36.5109 60.4736 36.6029 59.9133Q36.6948 59.353 36.7577 58.7887L38.0387 47.3005Q38.0968 46.7796 38.1796 46.2621Q38.2624 45.7446 38.3697 45.2316Q38.477 44.7187 38.6086 44.2114Q38.7402 43.7041 38.8958 43.2036Q39.0514 42.7032 39.2307 42.2107Q39.4099 41.7182 39.6124 41.2348Q39.8149 40.7514 40.0401 40.2782Q40.2654 39.805 40.5129 39.343Q40.7604 38.8811 41.0296 38.4314Q41.2988 37.9818 41.5891 37.5454Q41.8794 37.1091 42.1901 36.687Q42.5008 36.265 42.8313 35.8582Q43.1617 35.4515 43.5112 35.0609Q43.8606 34.6703 44.2282 34.2968Q44.5959 33.9233 44.9809 33.5677Q45.3659 33.2121 45.7673 32.8752Q46.1688 32.5383 46.5858 32.2209Q47.0029 31.9035 47.4346 31.6064Q47.8662 31.3092 48.3116 31.0329Q48.7569 30.7566 49.2149 30.5018Q49.6728 30.2469 50.1424 30.0142Q50.612 29.7815 51.0921 29.5714Q51.5722 29.3613 52.0618 29.1742Q52.5514 28.9872 53.0493 28.8237Q53.5472 28.6601 54.0524 28.5205Q54.5575 28.3808 55.0687 28.2654Q55.5799 28.1499 56.096 28.0589Q56.6122 27.9679 57.132 27.9016Q57.6519 27.8353 58.1743 27.7937Q58.6968 27.7522 59.2206 27.7356Q59.7444 27.719 60.2684 27.7273Q60.7925 27.7356 61.3155 27.7689L72.8517 28.5023Q73.4183 28.5383 73.9861 28.5451Q74.5538 28.5519 75.1212 28.5293Q75.6885 28.5068 76.254 28.4551Q76.8194 28.4034 77.3814 28.3226Q77.9434 28.2418 78.5005 28.1321Q79.0576 28.0225 79.6083 27.8842Q80.159 27.746 80.7019 27.5796Q81.2447 27.4131 81.7783 27.2189Q82.3118 27.0248 82.8347 26.8033Q83.3575 26.5819 83.8682 26.3338Q84.3789 26.0857 84.8762 25.8116Q85.3734 25.5375 85.8559 25.2381Q86.3384 24.9388 86.8047 24.6149Q87.2711 24.2911 87.7202 23.9437Q88.1693 23.5962 88.5999 23.2261Q89.0304 22.856 89.4413 22.4641L97.8071 14.487Q98.1864 14.1254 98.5825 13.7822Q98.9786 13.4389 99.3905 13.115Q99.8025 12.791 100.229 12.487Q100.656 12.183 101.097 11.8996Q101.538 11.6163 101.992 11.3542Q102.446 11.0922 102.912 10.852Q103.377 10.6119 103.854 10.3941Q104.331 10.1764 104.817 9.98164Q105.304 9.78685 105.799 9.61543Q106.294 9.44402 106.797 9.29636Q107.3 9.1487 107.809 9.02514Q108.319 8.90158 108.833 8.8024Q109.348 8.70321 109.867 8.62862Q110.385 8.55404 110.907 8.50422Q111.429 8.4544 111.952 8.42946Q112.476 8.40452 113 8.40452Q113.524 8.40452 114.048 8.42946Q114.571 8.4544 115.093 8.50422Q115.614 8.55404 116.133 8.62862Q116.652 8.70321 117.167 8.8024Q117.681 8.90158 118.191 9.02514Q118.7 9.1487 119.203 9.29636Q119.706 9.44402 120.201 9.61543Q120.696 9.78685 121.183 9.98164Q121.669 10.1764 122.146 10.3941Q122.623 10.6119 123.088 10.852Q123.554 11.0922 124.008 11.3542Q124.462 11.6163 124.903 11.8996Q125.344 12.183 125.771 12.487Q126.198 12.791 126.609 13.115Q127.021 13.4389 127.418 13.7822Q127.814 14.1254 128.193 14.487Z" fill="#00b82e" fill-rule="evenodd" />
</svg>