<?xml version="1.0" encoding="utf-8"?>
<svg width="226" height="226" viewBox="0 0 226 226" fill="none" xmlns="http://www.w3.org/2000/svg">
  <path d="M139.176 20.3427L164.382 39.9322Q165.472 40.7791 166.614 41.5537L193.034 59.4729Q193.763 59.9673 194.47 60.4914Q195.178 61.0154 195.864 61.5683Q196.55 62.1211 197.212 62.7018Q197.874 63.2825 198.512 63.89Q199.15 64.4976 199.762 65.1309Q200.374 65.7642 200.959 66.4223Q201.545 67.0803 202.103 67.762Q202.66 68.4437 203.19 69.1478Q203.719 69.8519 204.218 70.5772Q204.718 71.3026 205.187 72.048Q205.657 72.7933 206.095 73.5574Q206.533 74.3215 206.939 75.1031Q207.345 75.8846 207.719 76.6822Q208.093 77.4799 208.433 78.2922Q208.773 79.1046 209.08 79.9303Q209.386 80.7561 209.658 81.5938Q209.931 82.4314 210.168 83.2796Q210.405 84.1278 210.607 84.9851Q210.81 85.8424 210.976 86.7073Q211.143 87.5722 211.274 88.4432Q211.404 89.3143 211.499 90.1899Q211.594 91.0656 211.652 91.9445Q211.711 92.8233 211.733 93.7038Q211.755 94.5844 211.741 95.465Q211.726 96.3457 211.676 97.225Q211.625 98.1044 211.538 98.9809Q211.452 99.8574 211.329 100.73Q211.206 101.602 211.047 102.468Q210.888 103.334 210.693 104.193Q210.499 105.053 210.269 105.903Q210.039 106.753 209.775 107.593Q209.51 108.433 209.211 109.262L198.37 139.288Q197.901 140.586 197.517 141.912L188.639 172.576Q188.394 173.422 188.114 174.257Q187.835 175.092 187.521 175.915Q187.207 176.738 186.859 177.547Q186.512 178.357 186.131 179.151Q185.75 179.945 185.337 180.723Q184.924 181.501 184.479 182.261Q184.034 183.021 183.558 183.762Q183.082 184.504 182.576 185.224Q182.07 185.945 181.534 186.645Q180.999 187.344 180.435 188.021Q179.871 188.697 179.28 189.35Q178.689 190.003 178.071 190.631Q177.453 191.258 176.81 191.86Q176.167 192.462 175.499 193.037Q174.832 193.612 174.141 194.158Q173.451 194.705 172.738 195.223Q172.026 195.74 171.292 196.228Q170.559 196.716 169.806 197.173Q169.053 197.63 168.282 198.056Q167.511 198.482 166.723 198.875Q165.935 199.269 165.132 199.629Q164.328 199.99 163.51 200.317Q162.692 200.644 161.862 200.938Q161.031 201.231 160.189 201.489Q159.347 201.748 158.495 201.972Q157.643 202.195 156.783 202.383Q155.923 202.572 155.055 202.724Q154.188 202.877 153.315 202.994Q152.442 203.11 151.564 203.191Q150.687 203.271 149.808 203.315Q148.928 203.36 148.047 203.368Q147.166 203.375 146.286 203.347L114.379 202.315Q113 202.27 111.621 202.315L79.7139 203.347Q78.8335 203.375 77.9528 203.368Q77.072 203.36 76.1923 203.315Q75.3127 203.271 74.4356 203.191Q73.5585 203.11 72.6854 202.994Q71.8124 202.877 70.9449 202.724Q70.0774 202.572 69.217 202.383Q68.3566 202.195 67.5046 201.972Q66.6527 201.748 65.8107 201.489Q64.9688 201.231 64.1382 200.938Q63.3076 200.644 62.4898 200.317Q61.672 199.99 60.8685 199.63Q60.0649 199.269 59.2769 198.875Q58.4889 198.482 57.7178 198.056Q56.9467 197.63 56.1939 197.173Q55.441 196.716 54.7077 196.228Q53.9744 195.74 53.2618 195.223Q52.5492 194.705 51.8586 194.158Q51.168 193.612 50.5006 193.037Q49.8331 192.462 49.19 191.86Q48.5468 191.258 47.9291 190.631Q47.3113 190.003 46.72 189.35Q46.1287 188.697 45.5648 188.021Q45.001 187.344 44.4655 186.645Q43.9301 185.945 43.4239 185.224Q42.9178 184.504 42.4419 183.762Q41.9659 183.021 41.521 182.261Q41.0761 181.501 40.6629 180.723Q40.2497 179.945 39.869 179.151Q39.4883 178.357 39.1407 177.547Q38.793 176.738 38.4791 175.915Q38.1652 175.092 37.8856 174.257Q37.6059 173.422 37.361 172.576L28.483 141.912Q28.0992 140.586 27.6305 139.288L16.789 109.262Q16.4899 108.433 16.2252 107.593Q15.9605 106.753 15.7308 105.903Q15.501 105.053 15.3065 104.193Q15.1121 103.334 14.9532 102.468Q14.7944 101.602 14.6714 100.73Q14.5485 99.8574 14.4616 98.9809Q14.3748 98.1044 14.3242 97.225Q14.2736 96.3457 14.2594 95.465Q14.2451 94.5844 14.2673 93.7038Q14.2894 92.8233 14.3478 91.9445Q14.4063 91.0656 14.501 90.1899Q14.5956 89.3143 14.7264 88.4432Q14.8571 87.5722 15.0237 86.7073Q15.1903 85.8424 15.3925 84.9851Q15.5946 84.1279 15.832 83.2796Q16.0694 82.4314 16.3415 81.5938Q16.6137 80.7561 16.9202 79.9303Q17.2268 79.1046 17.5671 78.2922Q17.9075 77.4799 18.2811 76.6822Q18.6547 75.8846 19.0609 75.1031Q19.4671 74.3215 19.9052 73.5574Q20.3433 72.7933 20.8126 72.048Q21.2819 71.3026 21.7815 70.5773Q22.2812 69.8519 22.8104 69.1478Q23.3395 68.4437 23.8973 67.762Q24.4551 67.0803 25.0406 66.4223Q25.626 65.7642 26.2381 65.1309Q26.8502 64.4976 27.488 63.89Q28.1257 63.2825 28.788 62.7018Q29.4502 62.1211 30.1359 61.5683Q30.8216 61.0154 31.5295 60.4914Q32.2374 59.9673 32.9664 59.4729L59.3862 41.5537Q60.5284 40.7791 61.6181 39.9322L86.8245 20.3427Q87.5199 19.8022 88.2371 19.2909Q88.9543 18.7796 89.692 18.2983Q90.4296 17.817 91.1866 17.3666Q91.9435 16.9162 92.7183 16.4974Q93.4932 16.0786 94.2847 15.6921Q95.0762 15.3057 95.8829 14.9523Q96.6897 14.5988 97.5104 14.279Q98.331 13.9591 99.1642 13.6734Q99.9974 13.3878 100.842 13.1367Q101.686 12.8857 102.54 12.6697Q103.394 12.4537 104.256 12.2731Q105.118 12.0926 105.987 11.9478Q106.855 11.8029 107.73 11.6941Q108.604 11.5853 109.481 11.5126Q110.359 11.44 111.239 11.4036Q112.119 11.3673 113 11.3673Q113.881 11.3673 114.761 11.4036Q115.641 11.44 116.519 11.5126Q117.396 11.5853 118.271 11.6941Q119.145 11.8029 120.013 11.9478Q120.882 12.0926 121.744 12.2731Q122.606 12.4537 123.46 12.6697Q124.314 12.8857 125.158 13.1367Q126.003 13.3878 126.836 13.6735Q127.669 13.9591 128.49 14.279Q129.31 14.5988 130.117 14.9523Q130.924 15.3057 131.715 15.6922Q132.507 16.0786 133.282 16.4974Q134.057 16.9162 134.813 17.3666Q135.57 17.817 136.308 18.2983Q137.046 18.7796 137.763 19.2909Q138.48 19.8022 139.176 20.3427Z" fill="#0073ff" fill-rule="evenodd" />
</svg>